<?xml version="1.0" encoding="utf-8"?>
<!-- Generator: Adobe Illustrator 19.1.1, SVG Export Plug-In . SVG Version: 6.00 Build 0)  -->
<svg version="1.1" id="Layer_1" xmlns="http://www.w3.org/2000/svg" xmlns:xlink="http://www.w3.org/1999/xlink" x="0px" y="0px"
	 viewBox="0 0 595.3 841.9" style="enable-background:new 0 0 595.3 841.9;" xml:space="preserve">
<path d="M228.7,355.7c0-19.1,0-38.3,0-57.4c0-1.6-0.8-3.8,1-4.5c1.7-0.6,2.7,1.6,3.8,2.7c5.1,5,10.1,10.2,15.2,15.1
	c2.5,2.5,3.7,5.3,3.7,8.9c-0.1,23.6-0.1,47.3,0,70.9c0,3.2-0.7,5.9-3,8.1c-5.7,5.6-11.3,11.3-17,16.9c-0.8,0.8-1.6,2.2-2.8,1.7
	c-1.6-0.6-1-2.3-1-3.5C228.6,395,228.7,375.3,228.7,355.7z"/>
<path d="M365.3,356.1c0,19,0,38,0,56.9c0,1.7,1,4.2-1,4.9c-1.8,0.6-2.9-1.8-4.2-3c-5.1-5-10.1-10.1-15.2-15.2
	c-2.3-2.2-3.3-4.8-3.3-8c0.1-24,0.1-48,0-71.9c0-3,0.8-5.5,3-7.6c5.7-5.6,11.3-11.3,17-16.9c0.8-0.8,1.6-2.2,2.8-1.7
	c1.6,0.6,1,2.3,1,3.5C365.4,316.8,365.3,336.5,365.3,356.1z"/>
<path d="M296.9,311.2c-11.7,0-23.3-0.1-35,0.1c-3.8,0-6.7-1-9.3-3.7c-5.1-5.3-10.4-10.4-15.5-15.6c-1-1-2.9-1.9-2.2-3.5
	c0.7-1.6,2.7-0.9,4.1-0.9c35.8,0,71.6,0,107.4,0c3.5,0,7,0,10.5,0c0.9,0,2.3-0.2,2.5,1c0.1,0.6-0.6,1.5-1.1,2.1
	c-6.1,6.1-12.2,12.3-18.4,18.3c-2,2-4.7,2.2-7.4,2.2C320.5,311.2,308.7,311.2,296.9,311.2z"/>
<path d="M228.6,487.4c0-19,0-38,0-56.9c0-1.6-0.8-3.8,0.8-4.6c1.7-0.8,2.8,1.3,3.9,2.4c5.2,5.1,10.3,10.4,15.6,15.5
	c2.4,2.4,3.5,5,3.5,8.5c-0.1,23.8-0.1,47.6,0,71.4c0,3.4-1.1,6.1-3.5,8.4c-5.2,5.1-10.3,10.4-15.6,15.5c-1.1,1.1-2.1,3.2-3.9,2.4
	c-1.4-0.7-0.7-2.7-0.7-4.2C228.6,526.3,228.6,506.8,228.6,487.4z"/>
<path d="M365.3,488.1c0,19.3,0,38.6,0,57.9c0,1.4,0.7,3.4-0.9,4c-1.6,0.6-2.5-1.3-3.5-2.3c-5.2-5.1-10.3-10.4-15.6-15.5
	c-2.5-2.5-3.7-5.3-3.7-8.9c0.1-23.6,0.1-47.3,0-70.9c0-3.1,0.6-5.9,2.9-8.2c5.7-5.6,11.3-11.3,17-16.9c0.8-0.8,1.6-2.1,2.8-1.7
	c1.6,0.6,1,2.3,1,3.5C365.4,448.8,365.3,468.4,365.3,488.1z"/>
<path d="M297,556.2c-19.3,0-38.6,0-57.9,0c-1.4,0-3.5,0.7-4.2-0.7c-0.8-1.8,1.3-2.8,2.4-3.9c5.1-5.2,10.4-10.4,15.5-15.6
	c2.4-2.4,5-3.5,8.4-3.5c23.8,0.1,47.6,0.1,71.4,0c3.4,0,6.1,1.1,8.5,3.5c5.2,5.4,10.6,10.6,15.9,15.9c1,1,2.9,1.9,2.1,3.5
	c-0.7,1.5-2.7,0.8-4.1,0.8C335.7,556.3,316.3,556.2,297,556.2z"/>
</svg>
