<?xml version="1.0" encoding="utf-8"?>
<!-- Generator: Adobe Illustrator 19.1.1, SVG Export Plug-In . SVG Version: 6.00 Build 0)  -->
<svg version="1.1" id="Layer_1" xmlns="http://www.w3.org/2000/svg" xmlns:xlink="http://www.w3.org/1999/xlink" x="0px" y="0px"
	 viewBox="0 0 595.3 841.9" style="enable-background:new 0 0 595.3 841.9;" xml:space="preserve">
<path d="M309.3,356.2c0,19.3,0,38.6,0,57.9c0,1.4,0.7,3.3-1,4c-1.3,0.5-2.2-1.1-3.1-2c-5.4-5.4-10.8-10.8-16.3-16.2
	c-2.3-2.2-3.3-4.8-3.3-8c0.1-24,0.1-48,0-71.9c0-3.2,1.1-5.8,3.3-8c5.2-5.1,10.3-10.4,15.6-15.5c1.1-1.1,2.1-3.3,3.8-2.6
	c1.8,0.7,1,2.9,1,4.5C309.4,317.5,309.4,336.9,309.3,356.2z"/>
<path d="M309.3,488.1c0,19.3,0,38.6,0,57.9c0,1.4,0.7,3.4-0.9,4c-1.6,0.6-2.5-1.3-3.5-2.3c-5.2-5.1-10.3-10.4-15.6-15.5
	c-2.5-2.5-3.7-5.2-3.7-8.9c0.1-23.6,0.1-47.3,0-70.9c0-3.1,0.6-5.9,2.9-8.2c5.7-5.6,11.3-11.3,17-16.9c0.8-0.8,1.6-2.1,2.8-1.7
	c1.6,0.5,1,2.3,1,3.5C309.4,448.8,309.3,468.4,309.3,488.1z"/>
</svg>
