<?xml version="1.0" encoding="utf-8"?>
<!-- Generator: Adobe Illustrator 19.1.1, SVG Export Plug-In . SVG Version: 6.00 Build 0)  -->
<svg version="1.1" id="Layer_1" xmlns="http://www.w3.org/2000/svg" xmlns:xlink="http://www.w3.org/1999/xlink" x="0px" y="0px"
	 viewBox="0 0 595.3 841.9" style="enable-background:new 0 0 595.3 841.9;" xml:space="preserve">
<path d="M297.1,401.5c12.3,0,24.6,0.1,36.9-0.1c3.3,0,5.7,0.9,7.9,3.3c4.5,4.7,9.1,9.3,13.8,13.8c2.4,2.3,2.9,4,0.3,6.5
	c-5.4,5.1-10.7,10.5-15.9,15.9c-1.6,1.6-3.4,2.4-5.7,2.4c-25-0.1-49.9-0.1-74.9,0c-2.2,0-3.8-0.7-5.3-2.2
	c-5.4-5.4-10.8-10.9-16.3-16.2c-2.1-2-2.4-3.6-0.1-5.8c5.3-5.1,10.5-10.2,15.5-15.5c1.9-1.9,4-2,6.4-2
	C272.2,401.6,284.6,401.5,297.1,401.5z"/>
<path d="M365.3,355.9c0,19,0,38,0,56.9c0,1.8,0.9,4.4-0.8,5.1c-2.1,0.9-3.2-1.8-4.6-3.1c-5-4.9-9.9-9.9-14.9-14.8
	c-2.4-2.4-3.5-5-3.5-8.4c0.1-23.8,0.1-47.6,0-71.4c0-3.2,0.9-5.8,3.1-8.1c5.6-5.5,11.1-11.1,16.6-16.6c0.9-0.9,1.7-2.6,3.2-1.8
	c1.3,0.7,0.7,2.4,0.7,3.7C365.4,316.9,365.3,336.4,365.3,355.9z"/>
<path d="M296.8,311.2c-11.7,0-23.3-0.1-35,0.1c-3.8,0-6.7-1.1-9.3-3.8c-5.2-5.4-10.6-10.6-15.8-15.9c-0.9-0.9-2.5-1.7-1.8-3.2
	c0.5-1.2,2.1-0.8,3.2-0.8c39.3,0,78.6,0,117.9,0c1.1,0,2.6-0.4,3.2,0.7c0.8,1.5-0.9,2.3-1.7,3.2c-5.5,5.6-11.1,11.1-16.6,16.6
	c-2.3,2.3-4.9,3.2-8.1,3.2C320.8,311.2,308.8,311.2,296.8,311.2z"/>
<path d="M228.6,487.7c0-19.1,0-38.3,0-57.4c0-1.6-0.8-3.8,1-4.5c1.7-0.6,2.7,1.5,3.8,2.6c5.1,5,10.1,10.2,15.2,15.1
	c2.5,2.5,3.7,5.3,3.7,8.9c-0.1,23.6-0.1,47.3,0,70.9c0,3.6-1.1,6.4-3.6,8.9c-5.3,5.1-10.4,10.4-15.6,15.5c-1,1-2,2.9-3.5,2.4
	c-1.8-0.7-1-2.9-1-4.5C228.6,526.3,228.6,507,228.6,487.7z"/>
<path d="M296.7,556.2c-19.1,0-38.3,0-57.4,0c-1.5,0-3.7,0.8-4.5-1c-0.6-1.5,1.3-2.5,2.4-3.5c5.3-5.3,10.6-10.6,15.9-15.9
	c2.2-2.3,4.8-3.3,8-3.3c24,0.1,48,0.1,71.9,0c3,0,5.5,0.8,7.6,3c5.6,5.7,11.3,11.3,16.9,17c0.8,0.8,2.2,1.6,1.7,2.8
	c-0.6,1.6-2.3,0.9-3.6,0.9C336,556.2,316.4,556.2,296.7,556.2z"/>
</svg>
