<?xml version="1.0" encoding="utf-8"?>
<!-- Generator: Adobe Illustrator 19.1.1, SVG Export Plug-In . SVG Version: 6.00 Build 0)  -->
<svg version="1.1" id="Layer_1" xmlns="http://www.w3.org/2000/svg" xmlns:xlink="http://www.w3.org/1999/xlink" x="0px" y="0px"
	 viewBox="0 0 595.3 841.9" style="enable-background:new 0 0 595.3 841.9;" xml:space="preserve">
<path d="M294,401.5c12.3,0,24.6,0.1,36.9-0.1c3.2,0,5.7,0.7,8,3.2c4.6,4.8,9.3,9.5,14.1,14.1c2.3,2.2,2.6,3.8,0.1,6.1
	c-5.4,5.2-10.7,10.5-15.9,15.9c-1.8,1.8-3.7,2.5-6.2,2.5c-24.6-0.1-49.3-0.1-73.9,0c-2.5,0-4.5-0.6-6.2-2.4
	c-5.2-5.4-10.5-10.7-15.9-15.9c-2.3-2.2-2.5-4.1,0-6.1c0.1-0.1,0.2-0.2,0.4-0.4c5.8-5.5,10.3-13.4,17.4-16.1
	c6.5-2.5,14.8-0.8,22.2-0.8C281.3,401.5,287.6,401.5,294,401.5z"/>
<path d="M362.3,355.9c0,19.3,0,38.6,0,57.9c0,1.4,0.7,3.5-0.7,4.2c-1.8,0.9-2.8-1.3-3.9-2.4c-5.2-5.1-10.4-10.4-15.6-15.5
	c-2.4-2.4-3.5-5-3.5-8.4c0.1-23.8,0.1-47.6,0-71.4c0-3.4,1.1-6.1,3.5-8.5c5.5-5.4,10.8-10.8,16.3-16.2c0.9-0.9,1.7-2.5,3.2-1.8
	c1.3,0.7,0.8,2.4,0.8,3.7C362.4,316.9,362.3,336.4,362.3,355.9z"/>
<path d="M294.5,287.5c19,0,38,0,56.9,0c1.6,0,3.8-0.8,4.6,0.8c0.8,1.7-1.3,2.8-2.4,3.9c-5.1,5.2-10.4,10.3-15.5,15.6
	c-2.4,2.4-5,3.5-8.5,3.5c-23.8-0.1-47.6-0.1-71.4,0c-3.4,0-6.1-1.1-8.4-3.5c-5.1-5.2-10.4-10.3-15.5-15.6c-1.1-1.1-3.2-2.1-2.4-3.9
	c0.7-1.4,2.7-0.7,4.2-0.7C255.6,287.5,275,287.5,294.5,287.5z"/>
<path d="M362.3,488c0,19.3,0,38.6,0,57.9c0,1.4,0.7,3.4-0.8,4.1c-1.6,0.8-2.5-1.2-3.5-2.2c-5.3-5.2-10.6-10.6-15.9-15.9
	c-2.4-2.4-3.4-5.1-3.4-8.5c0.1-23.8,0.1-47.6,0-71.4c0-3.4,1.1-6.1,3.5-8.4c5.3-5.2,10.6-10.6,15.9-15.9c1-1,1.9-2.9,3.5-2
	c1.2,0.6,0.7,2.4,0.7,3.7C362.4,449,362.3,468.5,362.3,488z"/>
<path d="M293.7,556.2c-19.1,0-38.3,0-57.4,0c-1.5,0-3.8,0.9-4.4-1.1c-0.5-1.4,1.4-2.4,2.4-3.5c5-5.1,10.2-10.1,15.2-15.2
	c2.6-2.7,5.4-4,9.3-4c23.6,0.1,47.3,0.1,70.9,0c3.4,0,6.1,1,8.5,3.4c5.4,5.5,10.8,10.8,16.2,16.3c0.9,0.9,2.5,1.7,1.9,3.2
	c-0.6,1.5-2.3,0.9-3.6,0.9C333,556.2,313.3,556.2,293.7,556.2z"/>
</svg>
