<?xml version="1.0" encoding="utf-8"?>
<!-- Generator: Adobe Illustrator 19.1.1, SVG Export Plug-In . SVG Version: 6.00 Build 0)  -->
<svg version="1.1" id="Layer_1" xmlns="http://www.w3.org/2000/svg" xmlns:xlink="http://www.w3.org/1999/xlink" x="0px" y="0px"
	 viewBox="0 0 595.3 841.9" style="enable-background:new 0 0 595.3 841.9;" xml:space="preserve">
<path d="M296.9,443.2c-12,0-24-0.1-35.9,0.1c-3.3,0-5.7-0.9-7.9-3.3c-4.8-5.1-9.8-10-14.8-14.8c-2.4-2.3-2.9-4.3-0.1-6.5
	c0.3-0.2,0.5-0.5,0.7-0.7c5.5-5.3,10.1-12.4,16.7-15.6c6.6-3.2,15-0.9,22.7-0.9c18.6-0.1,37.3,0,55.9-0.1c3.2,0,5.7,0.9,7.9,3.3
	c4.5,4.7,9,9.3,13.8,13.7c2.8,2.6,2.5,4.4-0.1,6.9c-5.1,4.8-10,9.8-14.8,14.8c-2.1,2.2-4.4,3.1-7.5,3.1
	C321.2,443.2,309,443.2,296.9,443.2z"/>
<path d="M228.6,355.9c0-19.3,0-38.6,0-57.9c0-1.4-0.7-3.5,0.7-4.2c1.8-0.8,2.8,1.3,3.9,2.4c5.2,5.1,10.3,10.4,15.6,15.5
	c2.4,2.4,3.5,5,3.5,8.4c-0.1,23.8-0.1,47.6,0,71.4c0,3.4-1.1,6.1-3.5,8.5c-5.4,5.2-10.6,10.6-15.9,15.9c-1,1-1.9,2.9-3.5,2.1
	c-1.5-0.7-0.8-2.7-0.8-4.1C228.6,394.6,228.6,375.2,228.6,355.9z"/>
<path d="M365.4,355.9c0,19.3,0,38.6,0,57.9c0,1.4,0.7,3.5-0.7,4.2c-1.8,0.8-2.8-1.3-3.9-2.4c-5.2-5.1-10.3-10.4-15.6-15.5
	c-2.4-2.4-3.5-5-3.5-8.4c0.1-23.8,0.1-47.6,0-71.4c0-3.4,1.1-6.1,3.5-8.5c5.4-5.2,10.6-10.6,15.9-15.9c1-1,1.9-2.9,3.5-2.1
	c1.5,0.7,0.8,2.7,0.8,4.1C365.4,317.2,365.4,336.5,365.4,355.9z"/>
<path d="M365.3,488.1c0,19.1,0,38.3,0,57.4c0,1.6,0.8,3.7-1,4.5c-1.5,0.6-2.5-1.3-3.5-2.3c-5.3-5.3-10.6-10.6-15.9-15.9
	c-2.3-2.2-3.3-4.8-3.3-8c0.1-24,0.1-48,0-71.9c0-3,0.8-5.5,3-7.6c5.7-5.6,11.3-11.3,17-16.9c0.8-0.8,1.6-2.2,2.8-1.7
	c1.6,0.6,0.9,2.3,1,3.5C365.4,448.8,365.3,468.5,365.3,488.1z"/>
</svg>
