<?xml version="1.0" encoding="utf-8"?>
<!-- Generator: Adobe Illustrator 19.1.1, SVG Export Plug-In . SVG Version: 6.00 Build 0)  -->
<svg version="1.1" id="Layer_1" xmlns="http://www.w3.org/2000/svg" xmlns:xlink="http://www.w3.org/1999/xlink" x="0px" y="0px"
	 viewBox="0 0 595.3 841.9" style="enable-background:new 0 0 595.3 841.9;" xml:space="preserve">
<path d="M298.1,401.5c12.3,0,24.6,0.1,36.9-0.1c3.3,0,5.7,0.9,7.9,3.3c4.3,4.6,8.7,9.2,13.4,13.4c3.2,2.9,3.1,5.1-0.2,7.5
	c-0.1,0.1-0.2,0.2-0.4,0.4c-5.7,5.6-10.6,12.9-17.4,16.2c-6.8,3.3-15.7,0.9-23.7,0.9c-17.5,0.1-34.9-0.1-52.4,0.1
	c-3.6,0-6.3-1-8.8-3.6c-4.8-5.1-9.8-10-14.8-14.8c-2.1-2-2.3-3.6-0.1-5.8c5.2-5,10.2-10,15.2-15.2c1.9-2,4.2-2.4,6.8-2.4
	C273.2,401.6,285.7,401.5,298.1,401.5z"/>
<path d="M229.7,355.7c0-19.3,0-38.6,0-57.9c0-1.4-0.7-3.4,0.9-4c1.6-0.6,2.5,1.3,3.5,2.3c5.2,5.1,10.3,10.4,15.6,15.5
	c2.5,2.5,3.7,5.3,3.7,8.9c-0.1,23.6-0.1,47.3,0,70.9c0,3.1-0.6,5.9-2.9,8.2c-5.7,5.6-11.3,11.3-17,16.9c-0.8,0.8-1.6,2.1-2.8,1.7
	c-1.6-0.5-1-2.3-1-3.5C229.6,395,229.7,375.4,229.7,355.7z"/>
<path d="M298.1,287.5c19.3,0,38.6,0,57.9,0c1.4,0,3.4-0.7,4.1,0.9c0.7,1.6-1.2,2.5-2.2,3.5c-5.1,5.2-10.4,10.3-15.5,15.6
	c-2.6,2.7-5.6,3.8-9.3,3.8c-23.5-0.1-47-0.1-70.4,0c-3.6,0-6.4-1-8.9-3.6c-5.2-5.4-10.6-10.6-15.9-15.9c-0.9-0.9-2.5-1.8-2.1-3.1
	c0.6-1.8,2.6-1.1,3.9-1.1C259.2,287.5,278.6,287.5,298.1,287.5z"/>
<path d="M366.3,488c0,19.3,0,38.6,0,57.9c0,1.4,0.7,3.4-0.8,4.1c-1.6,0.7-2.5-1.2-3.5-2.2c-5.3-5.3-10.6-10.6-15.9-15.9
	c-2.4-2.4-3.4-5.1-3.4-8.5c0.1-23.8,0.1-47.6,0-71.4c0-3.4,1.2-6.1,3.6-8.4c5.3-5.2,10.6-10.6,15.9-15.9c1-1,1.9-2.9,3.5-2
	c1.2,0.6,0.7,2.4,0.7,3.7C366.4,449,366.3,468.5,366.3,488z"/>
<path d="M297.8,556.2c-19.1,0-38.3,0-57.4,0c-1.6,0-3.8,0.8-4.5-1c-0.6-1.7,1.5-2.7,2.7-3.8c5-5.1,10.2-10.1,15.1-15.2
	c2.5-2.5,5.3-3.7,8.9-3.7c23.6,0.1,47.3,0.1,70.9,0c3.2,0,5.9,0.7,8.1,3c5.6,5.7,11.3,11.3,16.9,17c0.8,0.8,2.2,1.6,1.7,2.8
	c-0.6,1.6-2.3,1-3.5,1C337.1,556.2,317.4,556.2,297.8,556.2z"/>
</svg>
