<?xml version="1.0" encoding="utf-8"?>
<!-- Generator: Adobe Illustrator 19.1.1, SVG Export Plug-In . SVG Version: 6.00 Build 0)  -->
<svg version="1.1" id="Layer_1" xmlns="http://www.w3.org/2000/svg" xmlns:xlink="http://www.w3.org/1999/xlink" x="0px" y="0px"
	 viewBox="0 0 595.3 841.9" style="enable-background:new 0 0 595.3 841.9;" xml:space="preserve">
<path d="M297.2,401.5c12.3,0,24.6,0.1,36.9-0.1c3.3,0,5.7,0.9,7.9,3.3c4.3,4.6,8.7,9.2,13.4,13.4c3.2,2.9,3,5.1-0.2,7.5
	c-0.1,0.1-0.2,0.2-0.4,0.4c-5.7,5.6-10.6,12.9-17.4,16.2c-6.9,3.3-15.7,0.9-23.7,0.9c-17.5,0.1-34.9-0.1-52.4,0.1
	c-3.6,0-6.3-1-8.8-3.7c-4.8-5.1-9.8-10-14.8-14.8c-2.1-2.1-2.3-3.6-0.1-5.8c5.2-5,10.2-10,15.2-15.2c1.9-2,4.2-2.4,6.8-2.3
	C272.2,401.6,284.7,401.5,297.2,401.5z"/>
<path d="M228.6,355.9c0-19.3,0-38.6,0-57.9c0-1.4-0.7-3.5,0.7-4.2c1.8-0.8,2.8,1.3,3.9,2.4c5.2,5.1,10.3,10.4,15.6,15.5
	c2.4,2.4,3.5,5,3.5,8.4c-0.1,23.8-0.1,47.6,0,71.4c0,3.4-1.1,6.1-3.5,8.5c-5.4,5.2-10.6,10.6-15.9,15.9c-1,1-1.9,2.9-3.5,2.1
	c-1.5-0.7-0.8-2.7-0.8-4.1C228.6,394.6,228.6,375.2,228.6,355.9z"/>
<path d="M296.5,311.2c-11.7,0-23.3-0.1-35,0c-3.6,0-6.4-1.1-8.9-3.6c-5.2-5.4-10.6-10.6-15.9-15.9c-0.9-0.9-2.5-1.8-2-3.1
	c0.6-1.7,2.6-1,4-1c24.1,0,48.3,0,72.4,0c14.7,0,29.3,0,44,0c1.4,0,3.4-0.7,4,0.9c0.6,1.6-1.3,2.5-2.3,3.5
	c-5,5.1-10.2,10.1-15.1,15.2c-2.7,2.8-5.8,4.1-9.7,4.1C320.2,311.1,308.4,311.2,296.5,311.2z"/>
<path d="M228.6,487.9c0-19.3,0-38.6,0-57.9c0-1.4-0.7-3.5,0.7-4.2c1.8-0.8,2.8,1.3,3.9,2.4c5.2,5.1,10.3,10.4,15.6,15.5
	c2.4,2.4,3.5,5,3.5,8.4c-0.1,23.8-0.1,47.6,0,71.4c0,3.4-1.1,6.1-3.5,8.5c-5.4,5.2-10.6,10.6-15.9,15.9c-1,1-1.9,2.9-3.5,2.1
	c-1.5-0.7-0.8-2.7-0.8-4.1C228.6,526.6,228.6,507.2,228.6,487.9z"/>
<path d="M365.3,488.1c0,19.3,0,38.6,0,57.9c0,1.4,0.7,3.4-0.9,4c-1.6,0.6-2.5-1.3-3.5-2.3c-5.2-5.1-10.3-10.4-15.6-15.5
	c-2.5-2.5-3.7-5.3-3.7-8.9c0.1-23.6,0.1-47.3,0-70.9c0-3.1,0.6-5.9,2.9-8.2c5.7-5.6,11.3-11.3,17-16.9c0.8-0.8,1.6-2.1,2.8-1.7
	c1.6,0.5,1,2.3,1,3.5C365.4,448.8,365.3,468.4,365.3,488.1z"/>
<path d="M296.8,556.2c-19,0-38,0-56.9,0c-1.7,0-4.2,1-4.9-1c-0.6-1.8,1.8-2.9,3-4.2c5-5.1,10.1-10.1,15.2-15.2
	c2.2-2.3,4.8-3.3,8-3.3c24,0.1,48,0.1,71.9,0c3,0,5.5,0.8,7.6,3c5.6,5.7,11.3,11.3,16.9,17c0.8,0.8,2.2,1.6,1.7,2.8
	c-0.6,1.6-2.3,1-3.5,1C336.1,556.2,316.4,556.2,296.8,556.2z"/>
</svg>
