<?xml version="1.0" encoding="utf-8"?>
<!-- Generator: Adobe Illustrator 19.1.1, SVG Export Plug-In . SVG Version: 6.00 Build 0)  -->
<svg version="1.1" id="Layer_1" xmlns="http://www.w3.org/2000/svg" xmlns:xlink="http://www.w3.org/1999/xlink" x="0px" y="0px"
	 viewBox="0 0 595.3 841.9" style="enable-background:new 0 0 595.3 841.9;" xml:space="preserve">
<path d="M294,290.5c19.3,0,38.6,0,57.9,0c1.4,0,3.5-0.7,4.2,0.7c0.8,1.8-1.3,2.8-2.4,3.9c-5.1,5.2-10.4,10.3-15.5,15.6
	c-2.4,2.4-5,3.5-8.4,3.5c-23.8-0.1-47.6-0.1-71.4,0c-3.4,0-6.1-1.1-8.5-3.5c-5.2-5.4-10.6-10.6-15.9-15.9c-1-1-2.9-1.9-2.1-3.5
	c0.7-1.5,2.7-0.8,4.1-0.8C255.3,290.5,274.7,290.5,294,290.5z"/>
<path d="M362.4,359.2c0,19.1,0,38.3,0,57.4c0,1.5,0.8,3.7-1,4.5c-1.5,0.6-2.5-1.4-3.5-2.4c-5.3-5.3-10.6-10.6-15.9-15.9
	c-2.3-2.2-3.3-4.8-3.3-8c0.1-24,0.1-48,0-71.9c0-3.2,1.1-5.8,3.3-8c5.2-5.1,10.3-10.4,15.6-15.5c1.1-1.1,2.1-3.3,3.8-2.6
	c1.8,0.7,1,2.9,1,4.5C362.4,320.5,362.4,339.8,362.4,359.2z"/>
<path d="M362.3,491.2c0,19.1,0,38.3,0,57.4c0,1.5,0.9,3.8-1.1,4.4c-1.4,0.5-2.4-1.4-3.5-2.4c-5.1-5-10.1-10.2-15.2-15.2
	c-2.7-2.6-4-5.5-4-9.3c0.1-23.6,0.1-47.3,0-70.9c0-3.4,1-6.1,3.4-8.5c5.5-5.4,10.8-10.8,16.3-16.2c0.9-0.9,1.7-2.5,3.2-1.9
	c1.5,0.6,0.9,2.3,0.9,3.6C362.4,451.9,362.3,471.6,362.3,491.2z"/>
</svg>
