<?xml version="1.0" encoding="utf-8"?>
<!-- Generator: Adobe Illustrator 19.1.1, SVG Export Plug-In . SVG Version: 6.00 Build 0)  -->
<svg version="1.1" id="Layer_1" xmlns="http://www.w3.org/2000/svg" xmlns:xlink="http://www.w3.org/1999/xlink" x="0px" y="0px"
	 viewBox="0 0 595.3 841.9" style="enable-background:new 0 0 595.3 841.9;" xml:space="preserve">
<path d="M298,443.2c-12,0-24-0.1-35.9,0.1c-3.2,0-5.7-0.8-7.9-3.2c-4.9-5.2-10-10.2-15.2-15.2c-2.4-2.3-2.4-4.1,0.1-6.1
	c0.3-0.2,0.5-0.5,0.7-0.7c5.5-5.3,10.1-12.3,16.6-15.6c6.6-3.3,15-0.9,22.6-1c18.5-0.1,36.9,0,55.4-0.1c3.6,0,6.3,0.9,8.8,3.5
	c4.5,4.9,9.3,9.5,14.1,14.2c2,1.9,2.1,3.4,0.1,5.4c-5.6,5.5-11.2,11-16.6,16.6c-1.8,1.9-4,2.1-6.4,2.1
	C322.3,443.2,310.2,443.2,298,443.2z"/>
<path d="M298.2,287.5c19.1,0,38.3,0,57.4,0c1.6,0,3.8-0.8,4.5,1c0.6,1.7-1.5,2.7-2.6,3.8c-5,5.1-10.2,10.1-15.1,15.2
	c-2.5,2.5-5.3,3.7-8.9,3.7c-23.6-0.1-47.3-0.1-70.9,0c-3.6,0-6.4-1.1-8.9-3.6c-5.2-5.4-10.6-10.6-15.9-15.9c-0.9-0.9-2.6-1.8-2-3.1
	c0.6-1.7,2.6-1,4-1C259.2,287.5,278.7,287.5,298.2,287.5z"/>
<path d="M229.7,355.4c0-18.8,0-37.6,0-56.4c0-1.8-0.9-4.4,0.8-5.1c2.1-0.9,3.2,1.8,4.6,3.1c5,4.9,9.9,9.9,14.9,14.8
	c2.4,2.4,3.5,5,3.5,8.4c-0.1,23.8-0.1,47.6,0,71.4c0,3.2-0.9,5.8-3.1,8.1c-5.6,5.5-11.1,11.1-16.6,16.6c-0.9,0.9-1.7,2.6-3.2,1.8
	c-1.3-0.7-0.8-2.4-0.8-3.7C229.6,394.7,229.7,375,229.7,355.4z"/>
<path d="M366.4,356.1c0,19.1,0,38.3,0,57.4c0,1.6,0.8,3.8-1,4.5c-1.7,0.6-2.7-1.5-3.8-2.6c-5.1-5-10.1-10.2-15.2-15.1
	c-2.5-2.5-3.7-5.3-3.7-8.9c0.1-23.6,0.1-47.3,0-70.9c0-3.6,1.1-6.4,3.6-8.9c5.3-5.1,10.4-10.4,15.6-15.5c1-1,2-2.9,3.5-2.4
	c1.8,0.7,1,2.9,1,4.5C366.4,317.5,366.4,336.8,366.4,356.1z"/>
<path d="M229.7,487.6c0-19.3,0-38.6,0-57.9c0-1.4-0.7-3.3,1-4c1.3-0.5,2.2,1.2,3.1,2.1c5.4,5.4,10.8,10.9,16.3,16.2
	c2.3,2.2,3.3,4.8,3.3,8c-0.1,24-0.1,48,0,71.9c0,3.2-1.1,5.8-3.3,8c-5.3,5.3-10.6,10.6-15.9,15.9c-1,1-1.9,2.9-3.5,2.3
	c-1.6-0.6-0.9-2.6-0.9-4C229.6,526.6,229.7,507.1,229.7,487.6z"/>
<path d="M366.4,487.9c0,19.3,0,38.6,0,57.9c0,1.4,0.7,3.5-0.7,4.2c-1.8,0.8-2.8-1.3-3.9-2.4c-5.2-5.1-10.3-10.4-15.6-15.5
	c-2.4-2.4-3.5-5-3.5-8.4c0.1-23.8,0.1-47.6,0-71.4c0-3.4,1.1-6.1,3.5-8.5c5.4-5.2,10.6-10.6,15.9-15.9c1-1,1.9-2.9,3.5-2.1
	c1.5,0.7,0.8,2.7,0.8,4.1C366.4,449.2,366.4,468.5,366.4,487.9z"/>
<path d="M298,556.2c-19.3,0-38.6,0-57.9,0c-1.4,0-3.5,0.7-4.2-0.7c-0.8-1.8,1.3-2.8,2.4-3.9c5.1-5.2,10.4-10.4,15.5-15.6
	c2.4-2.4,5-3.5,8.4-3.5c23.8,0.1,47.6,0.1,71.4,0c3.4,0,6.1,1.1,8.5,3.5c5.2,5.4,10.6,10.6,15.9,15.9c1,1,2.9,1.9,2.1,3.5
	c-0.7,1.5-2.7,0.8-4.1,0.8C336.7,556.3,317.3,556.2,298,556.2z"/>
</svg>
