<?xml version="1.0" encoding="utf-8"?>
<!-- Generator: Adobe Illustrator 19.1.1, SVG Export Plug-In . SVG Version: 6.00 Build 0)  -->
<svg version="1.1" id="Layer_1" xmlns="http://www.w3.org/2000/svg" xmlns:xlink="http://www.w3.org/1999/xlink" x="0px" y="0px"
	 viewBox="0 0 595.3 841.9" style="enable-background:new 0 0 595.3 841.9;" xml:space="preserve">
<path d="M297,404.5c12.5,0,25,0.1,37.4,0c2.9,0,5.1,0.8,7.1,2.9c4.7,4.9,9.5,9.8,14.5,14.5c2.4,2.2,2.3,3.9,0,6.1
	c-5.4,5.2-10.7,10.5-15.9,15.9c-1.8,1.8-3.7,2.4-6.2,2.4c-24.6-0.1-49.3-0.1-73.9,0c-2.5,0-4.4-0.7-6.2-2.5
	c-5.2-5.4-10.5-10.7-15.9-15.9c-2.4-2.3-2.2-4,0.1-6.1c4.9-4.7,9.8-9.5,14.5-14.5c2-2.1,4.2-2.8,7.1-2.8
	C272.1,404.6,284.6,404.5,297,404.5z"/>
<path d="M296.8,314.2c-11.8,0-23.6-0.1-35.5,0c-3.4,0-6.1-1.1-8.5-3.5c-5.4-5.5-10.8-10.8-16.2-16.3c-0.9-0.9-2.5-1.7-1.8-3.2
	c0.5-1.2,2.1-0.8,3.2-0.8c39.3,0,78.6,0,117.9,0c1.1,0,2.6-0.4,3.2,0.7c0.8,1.5-0.9,2.3-1.7,3.2c-5.5,5.6-11.1,11.1-16.6,16.6
	c-2.3,2.3-4.9,3.2-8.1,3.2C320.8,314.2,308.8,314.2,296.8,314.2z"/>
<path d="M228.7,358.9c0-19.1,0-38.3,0-57.4c0-1.6-0.8-3.9,0.8-4.6c2-0.9,3,1.6,4.2,2.7c5.1,5,10.1,10.1,15.2,15.1
	c2.4,2.4,3.5,5,3.5,8.4c-0.1,23.8-0.1,47.6,0,71.4c0,3.2-0.8,5.8-3.1,8.1c-5.6,5.5-11.1,11.1-16.6,16.6c-0.9,0.9-1.7,2.6-3.2,1.8
	c-1.3-0.7-0.8-2.4-0.8-3.7C228.6,397.9,228.7,378.4,228.7,358.9z"/>
<path d="M365.4,358.9c0,19.3,0,38.6,0,57.9c0,1.4,0.7,3.5-0.7,4.2c-1.8,0.8-2.8-1.3-3.9-2.4c-5.2-5.1-10.3-10.4-15.6-15.5
	c-2.4-2.4-3.5-5-3.5-8.4c0.1-23.8,0.1-47.6,0-71.4c0-3.4,1.1-6.1,3.5-8.5c5.4-5.2,10.6-10.6,15.9-15.9c1-1,1.9-2.9,3.5-2.1
	c1.5,0.7,0.8,2.7,0.8,4.1C365.4,320.2,365.4,339.6,365.4,358.9z"/>
<path d="M365.3,490.9c0,19.1,0,38.3,0,57.4c0,1.6,0.8,3.9-0.8,4.6c-2,0.9-3-1.6-4.2-2.7c-5.1-5-10.1-10.1-15.2-15.1
	c-2.4-2.4-3.5-5-3.5-8.4c0.1-23.8,0.1-47.6,0-71.4c0-3.2,0.8-5.8,3.1-8.1c5.6-5.5,11.1-11.1,16.6-16.6c0.9-0.9,1.7-2.6,3.2-1.8
	c1.3,0.7,0.8,2.4,0.8,3.7C365.4,451.9,365.3,471.4,365.3,490.9z"/>
</svg>
